<svg width="1514" height="585" viewBox="0 0 1514 585" fill="none" xmlns="http://www.w3.org/2000/svg">
<g filter="url(#filter0_d_43_262)">
<path d="M607.502 231.75V134.484C609.26 120.617 615.217 108.41 625.373 97.8633C636.115 86.9258 649.299 81.457 664.924 81.457V122.766C656.525 122.961 651.35 126.965 649.396 134.777C649.006 136.535 648.811 138 648.811 139.172V231.75C649.006 239.758 653.498 245.031 662.287 247.57C663.459 247.961 664.338 248.156 664.924 248.156V289.465C653.596 289.465 642.268 285.461 630.939 277.453C615.51 266.125 607.697 250.891 607.502 231.75ZM680.744 289.465V248.156C682.893 248.156 685.627 246.398 688.947 242.883C691.877 239.562 693.342 236.047 693.342 232.336V222.668H680.744V184.582H734.943V236.438C734.943 248.547 728.693 260.461 716.193 272.18C704.279 283.508 692.463 289.27 680.744 289.465ZM680.744 122.766V81.457C695.197 81.457 708.088 87.707 719.416 100.207C729.768 111.34 734.943 123.547 734.943 136.828L694.514 151.77V140.344C694.514 131.164 690.998 125.5 683.967 123.352C682.795 122.961 681.721 122.766 680.744 122.766Z" fill="#C5FCEC"/>
<path d="M757.209 288V82.9219H798.518V288H757.209ZM814.338 204.211V167.59H818.146C830.646 167.59 838.654 162.512 842.17 152.355C842.951 149.816 843.342 147.18 843.342 144.445C843.342 134.094 838.459 127.16 828.693 123.645C825.568 122.473 822.053 121.887 818.146 121.887H814.338V82.9219H820.783C846.369 83.3125 864.338 92.3945 874.689 110.168C879.572 118.566 882.014 128.039 882.014 138.586C881.818 158.703 875.178 174.133 862.092 184.875C871.857 191.125 878.107 202.453 880.842 218.859C881.037 220.812 881.232 222.668 881.428 224.426L886.408 288H848.322L843.928 235.852C842.365 220.227 837.873 210.559 830.451 206.848C826.936 205.285 822.639 204.406 817.561 204.211H814.338Z" fill="#C5FCEC"/>
<path d="M903.986 230.871V134.484C903.986 124.133 908.381 113.586 917.17 102.844C928.889 88.7812 943.732 81.6523 961.701 81.457V122.766C953.693 122.961 948.42 127.453 945.881 136.242C945.49 137.609 945.295 138.586 945.295 139.172V230.871C945.295 238.879 949.689 244.348 958.479 247.277C959.846 247.668 960.822 247.863 961.408 247.863V289.465C950.275 289.465 939.143 285.461 928.01 277.453C912.189 265.734 904.182 250.207 903.986 230.871ZM977.521 289.465V247.863C980.646 247.863 984.162 246.203 988.068 242.883C991.779 239.562 993.732 235.559 993.928 230.871V139.172C993.928 135.656 992.268 131.945 988.947 128.039C985.822 124.719 982.014 122.961 977.521 122.766V81.457C997.248 81.457 1013.07 89.9531 1024.98 106.945C1031.82 116.711 1035.24 125.891 1035.24 134.484V230.871C1035.24 252.551 1025.57 269.152 1006.23 280.676C996.076 286.535 986.506 289.465 977.521 289.465Z" fill="#C5FCEC"/>
<path d="M1055.74 231.457V82.9219H1097.05V231.457C1097.25 239.465 1101.74 244.738 1110.53 247.277C1111.9 247.668 1112.87 247.863 1113.46 247.863V289.465C1102.13 289.465 1090.8 285.461 1079.47 277.453C1063.85 265.93 1055.94 250.598 1055.74 231.457ZM1129.28 289.465V247.863C1132.79 247.863 1136.51 246.203 1140.41 242.883C1143.73 239.758 1145.49 235.949 1145.69 231.457V82.9219H1186.7V231.457C1186.7 253.527 1176.94 270.031 1157.4 280.969C1147.64 286.633 1138.26 289.465 1129.28 289.465Z" fill="#C5FCEC"/>
<path d="M1208.67 288V143.859H1211.02L1249.98 206.555V288H1208.67ZM1208.67 109.875V82.9219H1242.37L1339.04 238.781V288H1319.42L1208.67 109.875ZM1297.74 142.102V82.9219H1339.04V204.797H1336.7L1297.74 142.102Z" fill="#C5FCEC"/>
<path d="M1363.65 288V82.9219H1404.96V288H1363.65ZM1420.78 288V246.691C1425.08 246.691 1429.08 244.934 1432.79 241.418C1435.53 238.293 1436.99 234.582 1437.19 230.285V140.637C1437.19 136.73 1435.53 132.922 1432.21 129.211C1429.08 126.086 1425.28 124.426 1420.78 124.23V82.9219C1442.46 82.9219 1458.87 92.5898 1470 111.926C1475.67 121.887 1478.5 131.457 1478.5 140.637V230.285C1478.5 252.551 1468.63 269.152 1448.91 280.09C1439.14 285.363 1429.77 288 1420.78 288Z" fill="#C5FCEC"/>
</g>
<g filter="url(#filter1_d_43_262)">
<path d="M462.012 464.711L499.219 451.527C499.219 456.41 500.586 460.707 503.32 464.418C506.055 468.129 508.789 470.57 511.523 471.742L515.625 473.793V511.879C499.023 511.879 484.863 504.652 473.145 490.199C465.918 481.02 462.207 472.523 462.012 464.711ZM464.355 362.172C464.355 340.688 473.535 324.574 491.895 313.832C500.293 308.754 508.203 306.117 515.625 305.922V344.594C510.742 345.961 507.129 349.477 504.785 355.141C504.004 356.898 503.613 358.754 503.613 360.707C503.613 368.715 509.57 375.551 521.484 381.215C524.023 382.387 528.125 384.145 533.789 386.488C543.164 390.199 549.805 393.227 553.711 395.57C569.531 404.945 580.078 414.516 585.352 424.281C589.258 431.898 591.211 440.395 591.211 449.77C591.211 467.543 584.473 482.777 570.996 495.473C559.473 506.41 546.387 511.879 531.738 511.879V473.793C539.355 472.816 544.727 468.812 547.852 461.781C549.219 458.656 549.902 455.238 549.902 451.527C549.902 441.566 542.48 433.363 527.637 426.918C524.902 425.746 520.605 424.086 514.746 421.938C507.91 419.594 503.125 417.738 500.391 416.371C483.594 408.363 472.852 398.012 468.164 385.316C465.625 378.48 464.355 370.766 464.355 362.172ZM531.738 344.594V305.922C548.145 305.922 561.914 312.855 573.047 326.723C579.492 334.926 582.812 342.348 583.008 348.988L544.922 361.586C544.922 353.383 540.918 347.816 532.91 344.887C532.129 344.691 531.738 344.594 531.738 344.594Z" fill="#C5FCEC"/>
<path d="M608.203 453.871V357.484C608.203 347.133 612.598 336.586 621.387 325.844C633.105 311.781 647.949 304.652 665.918 304.457V345.766C657.91 345.961 652.637 350.453 650.098 359.242C649.707 360.609 649.512 361.586 649.512 362.172V453.871C649.512 461.879 653.906 467.348 662.695 470.277C664.062 470.668 665.039 470.863 665.625 470.863V512.465C654.492 512.465 643.359 508.461 632.227 500.453C616.406 488.734 608.398 473.207 608.203 453.871ZM681.738 512.465V470.863C684.863 470.863 688.379 469.203 692.285 465.883C695.996 462.562 697.949 458.559 698.145 453.871V362.172C698.145 358.656 696.484 354.945 693.164 351.039C690.039 347.719 686.23 345.961 681.738 345.766V304.457C701.465 304.457 717.285 312.953 729.199 329.945C736.035 339.711 739.453 348.891 739.453 357.484V453.871C739.453 475.551 729.785 492.152 710.449 503.676C700.293 509.535 690.723 512.465 681.738 512.465Z" fill="#C5FCEC"/>
<path d="M759.961 454.457V305.922H801.27V454.457C801.465 462.465 805.957 467.738 814.746 470.277C816.113 470.668 817.09 470.863 817.676 470.863V512.465C806.348 512.465 795.02 508.461 783.691 500.453C768.066 488.93 760.156 473.598 759.961 454.457ZM833.496 512.465V470.863C837.012 470.863 840.723 469.203 844.629 465.883C847.949 462.758 849.707 458.949 849.902 454.457V305.922H890.918V454.457C890.918 476.527 881.152 493.031 861.621 503.969C851.855 509.633 842.48 512.465 833.496 512.465Z" fill="#C5FCEC"/>
<path d="M912.891 511V366.859H915.234L954.199 429.555V511H912.891ZM912.891 332.875V305.922H946.582L1043.26 461.781V511H1023.63L912.891 332.875ZM1001.95 365.102V305.922H1043.26V427.797H1040.92L1001.95 365.102Z" fill="#C5FCEC"/>
<path d="M1067.87 511V305.922H1109.18V511H1067.87ZM1125 511V469.691C1129.3 469.691 1133.3 467.934 1137.01 464.418C1139.75 461.293 1141.21 457.582 1141.41 453.285V363.637C1141.41 359.73 1139.75 355.922 1136.43 352.211C1133.3 349.086 1129.49 347.426 1125 347.23V305.922C1146.68 305.922 1163.09 315.59 1174.22 334.926C1179.88 344.887 1182.71 354.457 1182.71 363.637V453.285C1182.71 475.551 1172.85 492.152 1153.12 503.09C1143.36 508.363 1133.98 511 1125 511Z" fill="#C5FCEC"/>
</g>
<g filter="url(#filter2_d_43_262)">
<path fill-rule="evenodd" clip-rule="evenodd" d="M631 29L31 29L206.45 331.574L331.771 114.845H180.614L206.45 159.115H256.193L206.45 243.035L106.964 72.1149L606.707 72.1149L631 29ZM306.321 243.805L331.771 287.69L281.257 375.074L331.771 460.919L405.807 331.189L330.229 201.845L381.129 115.23L582.414 115.23L482.157 287.69L455.936 243.805L506.835 158.345H405.807L381.129 201.845L455.936 331.189L331.771 547.919L230.357 375.074L306.321 243.805Z" fill="#C5FCEC"/>
</g>
<defs>
<filter id="filter0_d_43_262" x="576.502" y="52.457" width="936.996" height="274.008" filterUnits="userSpaceOnUse" color-interpolation-filters="sRGB">
<feFlood flood-opacity="0" result="BackgroundImageFix"/>
<feColorMatrix in="SourceAlpha" type="matrix" values="0 0 0 0 0 0 0 0 0 0 0 0 0 0 0 0 0 0 127 0" result="hardAlpha"/>
<feOffset dx="2" dy="4"/>
<feGaussianBlur stdDeviation="16.5"/>
<feComposite in2="hardAlpha" operator="out"/>
<feColorMatrix type="matrix" values="0 0 0 0 0.160784 0 0 0 0 0.94902 0 0 0 0 0.72549 0 0 0 1 0"/>
<feBlend mode="normal" in2="BackgroundImageFix" result="effect1_dropShadow_43_262"/>
<feBlend mode="normal" in="SourceGraphic" in2="effect1_dropShadow_43_262" result="shape"/>
</filter>
<filter id="filter1_d_43_262" x="431.012" y="275.457" width="786.703" height="274.008" filterUnits="userSpaceOnUse" color-interpolation-filters="sRGB">
<feFlood flood-opacity="0" result="BackgroundImageFix"/>
<feColorMatrix in="SourceAlpha" type="matrix" values="0 0 0 0 0 0 0 0 0 0 0 0 0 0 0 0 0 0 127 0" result="hardAlpha"/>
<feOffset dx="2" dy="4"/>
<feGaussianBlur stdDeviation="16.5"/>
<feComposite in2="hardAlpha" operator="out"/>
<feColorMatrix type="matrix" values="0 0 0 0 0.160784 0 0 0 0 0.94902 0 0 0 0 0.72549 0 0 0 1 0"/>
<feBlend mode="normal" in2="BackgroundImageFix" result="effect1_dropShadow_43_262"/>
<feBlend mode="normal" in="SourceGraphic" in2="effect1_dropShadow_43_262" result="shape"/>
</filter>
<filter id="filter2_d_43_262" x="0" y="0" width="666" height="584.919" filterUnits="userSpaceOnUse" color-interpolation-filters="sRGB">
<feFlood flood-opacity="0" result="BackgroundImageFix"/>
<feColorMatrix in="SourceAlpha" type="matrix" values="0 0 0 0 0 0 0 0 0 0 0 0 0 0 0 0 0 0 127 0" result="hardAlpha"/>
<feOffset dx="2" dy="4"/>
<feGaussianBlur stdDeviation="16.5"/>
<feComposite in2="hardAlpha" operator="out"/>
<feColorMatrix type="matrix" values="0 0 0 0 0.160784 0 0 0 0 0.94902 0 0 0 0 0.72549 0 0 0 1 0"/>
<feBlend mode="normal" in2="BackgroundImageFix" result="effect1_dropShadow_43_262"/>
<feBlend mode="normal" in="SourceGraphic" in2="effect1_dropShadow_43_262" result="shape"/>
</filter>
</defs>
</svg>
